<?xml version="1.0" encoding="utf-8" ?><svg xmlns="http://www.w3.org/2000/svg" xmlns:xlink="http://www.w3.org/1999/xlink" width="2239" height="2239" viewBox="0 0 2239 2239"><path fill="#EBEBEB" transform="scale(2.1867 2.1867)" d="M815.347 453.196C819.864 452.997 823.136 453.924 826.651 456.808C829.397 459.061 831.293 463.733 831.251 467.087C830.919 493.359 783.909 544.613 766.262 561.688C762.085 565.804 757.746 569.752 753.255 573.523C749.587 576.574 744.917 579.995 741.765 583.394C740.811 586.438 740.891 588.696 741.424 591.872C744.544 610.463 768.475 595.145 777.252 589.599C792.014 580.046 805.62 568.992 817.879 556.301C821.544 552.507 828.388 542.616 835.52 548.151C839.599 551.113 838.629 557.26 835.421 561.3C827.591 571.161 814.956 598.887 840.435 592.689C851.862 589.909 866.57 579.823 877.342 574.419C885.943 570.105 894.727 561.703 903.976 558.68C906.057 557.939 909.939 560.073 910.791 561.97C915.467 572.371 900.435 576.298 894.342 581.129C875.49 592.582 854.763 607.702 831.881 608.272C814.718 608.7 809.561 599.614 809.953 584.077C790.57 595.661 767.185 620.861 742.075 614.31C733.85 612.164 729.996 602.091 726.849 595.145C715.546 603.123 706.91 611.758 693.398 616.703C670.431 625.108 650.56 618.133 641.821 594.754C638.828 598.366 637.961 599.881 635.308 603.737C630.065 611.359 625.374 624.745 617.386 629.142C615.947 629.88 613.421 630.393 611.924 629.546C602.933 624.462 610.274 610.868 612.945 604.507C607.259 610.633 598.924 618.841 591.962 623.575C580.297 631.506 561.445 631.054 561.171 612.971C561.009 602.242 565.621 588.646 568.551 577.729C550.24 586.303 530.241 608.611 517.756 624.413C514.554 628.465 509.176 638.712 504.651 640.591C502.594 641.435 500.278 641.384 498.261 640.449C490 636.595 499.482 615.205 502.454 609.239C499.146 613.8 495.834 616.635 491.812 620.468C479.45 632.151 466.101 642.761 449.585 647.789C432.324 653.043 420.369 648.838 414.9 630.776C409.094 632.764 398.277 635.199 401.204 623.917C402.319 619.619 409.536 620.063 412.726 618.238C415.756 616.078 415.93 610.74 416.965 607.052C423.59 583.423 448.579 550.509 476.529 555.729C488.083 557.887 488.038 570.836 485.182 580.625C479.074 596.048 458.141 611.452 443.919 619.054C439.896 621.204 432.45 623.701 429.441 626.159C428.948 627.61 429.198 628.6 429.86 629.976C431.108 632.57 432.604 634.542 435.47 635.355C444.689 637.971 458.349 628.881 465.408 623.642C483.943 609.886 502.82 591.723 516.012 572.632C527.676 555.752 564.208 472.928 575.978 466.765C577.693 465.867 580.194 465.4 582.019 466.205C583.505 466.862 584.415 468.248 584.913 469.737C585.803 472.396 585.529 475.851 584.4 478.403C583.096 481.353 580.795 484.198 579.072 486.937C575.079 493.288 570.765 500.004 567.232 506.608C550.509 537.721 534.455 569.19 519.082 600.991C533.005 588.139 548.265 569.663 566.754 562.668C570.224 561.355 576.453 561.093 579.014 562.987C592.703 573.108 573.3 598.749 576.009 611.942C576.258 613.155 577.179 613.396 578.093 613.778C580.677 613.565 582.503 612.435 584.629 610.874C604.751 596.091 623.117 576.008 634.457 553.666C637.105 548.45 639.796 543.627 642.458 538.675L669.251 488.981C673.272 481.47 676.932 473.772 681.355 466.455C683.18 462.848 688.768 459.618 692.798 461.804C700.931 466.216 693.365 475.683 690.89 480.085C687.317 486.415 683.821 492.789 680.404 499.205L658.238 540.733C650.005 555.813 642.772 568.378 634.943 583.923C639.793 578.359 644.193 571.989 649.274 566.404C658.986 555.773 675.462 541.986 690.357 540.278C712.969 538.134 711.571 561.783 700.47 574.509C687.554 589.317 677.331 593.333 658.346 595.442C659.598 597.243 661.142 599.407 662.547 601.014C673.839 614.199 695.033 602.406 705.785 594.167C712.288 589.184 721.379 583.863 727.135 578.233C736.334 542.805 752.837 509.691 775.586 481.017C785.477 468.52 798.711 455.154 815.347 453.196ZM749.268 559.282C760.637 550.96 821.253 482.759 814.535 469.516C812.707 468.257 813.259 468.649 810.718 468.492C789.916 479.557 772.382 508.559 761.104 528.915C757.315 535.755 747.915 553.169 747.105 560.403C748.492 560.186 747.993 560.266 749.268 559.282ZM433.645 608.859C446.827 602.275 466.432 589.454 471.912 574.973C472.915 572.322 473.593 569.173 469.728 569.028C457.603 571.445 446.257 581.805 439.393 591.728C437.03 595.144 431.248 604.801 431.508 608.991L432.153 609.335L433.645 608.859ZM661.119 582.467C673.564 579.836 685.215 572.961 692.264 562.165C693.435 560.372 694.451 558.518 694.597 556.348C693.54 553.775 692.012 553.771 689.376 554.074C682.534 556.196 655.007 575.001 657.025 581.835C658.723 582.867 658.747 582.483 661.119 582.467Z"/><path fill="#EBEBEB" transform="scale(2.1867 2.1867)" d="M750.048 341.626C752.926 341.364 757.405 341.751 760.173 342.454C766.37 343.973 771.652 348.01 774.745 353.591C779.176 361.651 778.157 369.135 775.7 377.389C791.5 374.064 806.094 369.414 821.269 363.953C827.068 361.866 842.012 351.707 845.486 360.885C846.244 362.855 846.121 365.056 845.149 366.929C840.398 376.121 795.182 388.724 783.359 390.76C778.875 391.532 773.772 392.352 769.331 393.851C761.454 402.884 753.367 413.88 743.184 420.578C732.663 427.498 713.451 432.691 703.587 422.226C697.232 415.484 698.083 405.934 698.558 397.437C684.971 406.978 655.095 431.383 639.55 414.385C634.111 408.437 638.244 393.71 639.058 386.2C628.854 392.169 616.996 402.288 607.44 409.423C603.799 412.141 593.168 421.892 589.582 423.325C587.385 424.208 584.913 424.098 582.803 423.023C569.474 416.115 595.581 381.298 592.779 372.788C577.701 377.55 554.857 398.828 544.4 411.51C541.376 414.583 533.608 427.573 530.134 428.903C515.589 434.472 519.304 418.111 522.124 411.017C524.156 405.906 525.333 401.8 526.652 398.127C516.683 407.929 506.243 417.785 495.67 426.906C489.958 431.834 480.548 438.009 472.745 436.061C459.169 432.67 467 410.911 469.433 401.798C452.627 418.929 430.245 439.878 407.813 448.788C400.037 451.877 388.781 454.22 380.968 450.432C373.118 446.626 371.085 440.458 368.415 432.994C364.967 433.705 362.647 433.988 359.13 434.349C353.127 433.444 351.33 429.866 354.134 424.351C356.358 419.98 365.011 418.687 369.638 417.608C369.978 416.154 370.334 414.704 370.705 413.258C376.702 390.037 402.312 352.159 431.953 358.444C442.146 360.606 443.345 373.768 440.108 382.24C431.872 403.791 405.573 415.688 386.124 425.481C379.818 428.641 382.367 432.766 385.434 437.197L385.849 437.786C387.657 438.285 389.412 438.779 391.303 438.748C415.416 438.354 455.18 398.045 471.091 380.739C475.842 375.572 479.776 369.438 484.772 364.556C487.054 362.326 489.658 360.998 492.918 361.131C495.061 361.218 497.228 362 498.593 363.728C500.057 365.581 499.976 368.011 499.272 370.141C497.666 374.997 494.136 379.783 491.562 384.229C486.875 392.326 481.905 405.161 481.17 414.569C481.066 415.904 480.997 417.592 481.91 418.663C488.539 418.26 519.955 383.52 525.852 377.335C528.668 374.381 534.47 366.359 537.966 364.394C539.968 363.269 542.347 363.023 544.536 363.715C553.933 366.642 545.279 385.732 543.269 391.605C555.21 380.673 566.732 370.053 581.281 362.247C589.065 357.628 602.641 352.898 607.416 364.105C611.338 373.31 603.482 389.027 600.025 397.802C607.785 391.26 634.057 370.018 642.577 368.298C645.504 367.707 648.784 367.932 651.281 369.71C661.596 377.058 650.742 395.12 652.614 404.892C652.813 405.935 653.034 405.809 653.855 406.355C664.453 407.347 698.115 379.508 707.641 372.562C710.947 370.152 714.346 363.617 720.355 359.616L720.923 359.245L725.939 359.832C731.965 349.901 738.225 343.939 750.048 341.626ZM734.371 409.132C740.193 405.182 745.723 399.883 750.355 394.601C743.058 393.204 732.389 392.003 727.541 385.712C726.125 383.873 723.966 378.929 722.77 377.791C715.811 388.156 711.515 396.339 712.594 409.088C718.625 417.688 726.92 414.112 734.371 409.132ZM389.674 408.525C402.279 401.878 421.986 391.323 426.919 376.731C427.392 375.331 427.572 374.343 427.268 372.886C425.817 371.498 424.845 371.847 422.911 372.015C406.063 377.964 395.37 390.257 387.743 406.25C387.122 407.565 386.526 408.892 385.959 410.231L389.674 408.525ZM750.347 380.549C760.71 380.968 762.474 377.501 764.146 367.424C762.316 360.25 758.693 356.062 750.787 356.031C746.161 357.664 740.42 361.017 738.41 365.573C733.888 375.824 743.354 378.629 750.347 380.549Z"/><path fill="#EBEBEB" transform="scale(2.1867 2.1867)" d="M328.615 266.216C353.945 267.333 376.125 270.907 387.603 296.801C392.188 307.145 391.441 324.882 386.483 334.792C361.008 385.714 288.276 422.367 238.292 442.492C250.997 446.41 310.333 466.122 315.024 475.933C315.791 477.538 315.801 479.113 315.102 480.743C313.583 484.286 310.782 486.135 307.332 487.46C301.687 485.152 295.94 480.71 290.349 477.958C269.454 467.672 240.099 455.374 216.916 453.435C212.68 461.752 208.304 470.121 204.197 478.428C197.22 492.541 189.217 506.281 184.647 521.398C183.691 524.563 181.805 529.833 178.437 531.115C170.845 534.006 164.449 529.969 166.481 521.457C175.24 497.954 190.504 476.481 200.54 453.608C199.478 453.143 198.384 452.737 197.357 452.318C193.58 450.776 194.308 444.582 196.092 441.795C198.067 438.711 204.503 437.55 207.899 436.564C213.645 427.69 221.569 411.457 226.775 401.639L258.265 342.86C261.925 335.998 264.864 329.195 268.708 322.067C271.603 316.698 279.551 313.901 283.387 320.109C284.603 322.076 284.039 325.502 283.22 327.671C265.342 361.859 246.353 397.205 227.705 430.967C231.98 429.501 236.245 428.004 240.498 426.476C280.656 411.918 352.73 371.697 372.323 331.231C376.134 323.862 377.93 311.879 374.454 304.013C355.645 261.447 279.226 287.788 248.713 299.897C218.252 311.987 154.071 346.446 141.622 376.123L141.781 377.099C142.207 379.604 142.697 381.219 141.223 383.475C140.339 384.827 138.925 385.743 137.329 385.997C135.259 386.315 132.876 385.557 131.331 384.231C121.691 375.67 136.258 358.095 142.249 351.725C165.494 327.013 195.711 309.408 226.026 294.524C257.948 278.852 292.717 267.692 328.615 266.216Z"/><path fill="#EBEBEB" transform="scale(2.1867 2.1867)" d="M356.532 482.735C376.474 482.869 402.575 486.177 411.829 507.062C422.537 531.227 406.44 554.442 390.734 571.903C361.726 604.151 322.496 622.999 283.429 640.268C291.546 644.05 299.255 649.655 306.822 654.425C324.009 665.259 341.277 676.772 359.479 685.83C366.125 689.138 373.503 692.528 380.898 693.691C385.356 694.392 390.594 693.296 394.77 695.182C396.278 695.863 397.28 696.885 397.741 698.513C398.334 700.609 397.199 703.776 396.196 705.578C395.354 707.09 393.617 707.881 392.014 708.297C366.707 714.871 311.388 673.678 288.845 660.263C283.545 657.109 264.61 645.236 259.137 647.664C257.519 648.382 256.098 650.963 255.271 652.433C250.674 660.601 247.345 669.683 243.559 678.262C239.267 687.988 234.559 697.559 230.517 707.392C228.518 712.255 226.856 717.253 225.024 722.18C223.915 725.165 222.223 729.703 219.137 731.001C216.784 731.99 213.944 731.935 211.642 730.815C209.896 729.966 208.58 728.593 208.047 726.702C207.332 724.164 208.387 720.821 209.23 718.392C213.391 706.405 219.764 694.479 225.059 682.911C234.767 661.239 244.897 639.758 255.444 618.481C265.879 598.133 276.555 577.91 287.47 557.815C290.815 551.59 305.115 521.846 310.305 520.093C311.97 519.531 313.969 519.805 315.578 520.465C317.272 521.159 318.62 522.444 319.208 524.203C319.851 526.125 319.613 527.85 318.798 529.674C316.948 533.817 314.454 537.8 312.29 541.791L300.652 563.485C288.373 586.06 276.636 608.927 265.452 632.064C271.652 630.269 286.632 623.315 292.592 620.676C322.322 607.516 350.639 592.094 373.796 568.872C381.098 561.952 387.492 554.618 393.039 546.281C401.974 532.854 406.254 512.809 388.936 503.47C368.322 492.355 334.454 497.539 312.55 504.111C268.374 517.686 223.158 541.755 192.498 576.917C189.039 580.883 186.857 590.254 181.242 591.81C177.179 592.936 173.958 590.832 173.8 586.331C173.47 576.921 181.549 569.778 186.921 562.934C198.623 549.983 213.14 539.337 227.499 529.562C266.328 503.384 309.248 485.154 356.532 482.735Z"/><path fill="#EBEBEB" transform="scale(2.1867 2.1867)" d="M819.737 652.807C822.843 652.561 826.035 652.111 829.094 652.843C833.285 653.846 836.715 657.644 835.001 662.104C834.725 662.829 834.325 663.501 833.819 664.089C832.629 665.498 830.234 666.814 828.512 666.834C820.828 667.006 813.188 666.161 805.48 666.546C700.383 671.784 594.769 679.145 491.874 702.374C462.273 709.057 433.114 716.031 404.602 726.444C389.976 731.785 374.624 736.612 360.626 743.317C359.12 744.057 357.398 744.792 355.726 745.003C353.742 745.254 351.674 744.806 350.132 743.483C348.869 742.399 348.139 740.833 348.027 739.181C347.897 737.281 348.649 735.336 349.886 733.91C354.041 729.123 381.508 719.937 388.794 717.296C447.918 695.864 510.07 683.047 572.169 673.922C641.713 663.702 711.566 658.23 781.71 654.147C794.389 653.408 807.092 653.549 819.737 652.807Z"/><path fill="#EBEBEB" transform="scale(2.1867 2.1867)" d="M511.932 307.607C525.024 307.236 526.178 327.6 508.642 330.985C494.166 331.448 496.115 310.864 511.932 307.607Z"/><path fill="#EBEBEB" transform="scale(2.1867 2.1867)" d="M851.899 500.133C866.962 498.73 870.046 511.725 856.409 518.45C843.015 522.165 838.623 506.174 851.899 500.133Z"/></svg>